<?xml version="1.0"?>
<svg xmlns="http://www.w3.org/2000/svg" height="512px" viewBox="0 0 60 60" width="512px"><g><g id="026---Target" fill="none"><g id="Icons" transform="translate(1 1)"><path id="Shape" d="m58 29c-.0004652 7.9495901-3.2642918 15.550451-9.0282593 21.0251804-5.7639675 5.4747293-13.5226503 8.3432641-21.4617407 7.9348196h-.02c-15.4032699-.8098574-27.4773707-13.5354549-27.4773707-28.96s12.0741008-28.15014261 27.4773707-28.96h.02c7.9390904-.40844447 15.6977732 2.46009026 21.4617407 7.93481964 5.7639675 5.47472936 9.0277941 13.07559026 9.0282593 21.02518036z" fill="#a4c2f7" data-original="#A4C2F7"/><path id="Shape" d="m55 29c-.0003518 15.4291761-12.0817537 28.1566188-27.49 28.96h-.02c-15.4032699-.8098574-27.4773707-13.5354549-27.4773707-28.96s12.0741008-28.15014261 27.4773707-28.96h.02c15.4082463.80338124 27.4896482 13.5308239 27.49 28.96z" fill="#cad9fc" data-original="#CAD9FC"/><circle id="Oval" cx="29" cy="29" fill="#e8edfc" r="18" data-original="#E8EDFC"/><circle id="Oval" cx="29" cy="29" fill="#cad9fc" r="7" data-original="#CAD9FC"/></g><path id="Shape" d="m27.49 57.96h.02c.49.03.99.04 1.49.04s1.016-.014 1.52-.04h-.03c-15.4032699-.8098574-27.4773707-13.5354549-27.4773707-28.96s12.0741008-28.15014261 27.4773707-28.96h.029c-.5026667-.02666667-1.009-.04-1.519-.04-.5 0-1 .01-1.49.04h-.02c-15.4032699.80985739-27.4773707 13.5354549-27.4773707 28.96s12.0741008 28.1501426 27.4773707 28.96z" fill="#fff" transform="translate(1 1)" data-original="#FFF"/><path id="Shape" d="m1.154 21.832 1.925.544-.479 1.869c-.12.632-.2 1.272-.3 1.907l-.147.954-.05.965-.103 1.929h-2l.1-2.066c.04-.6893333.11166667-1.374.215-2.054.059-.374.113-.75.17-1.124.094-.614.232-1.22.386-1.82z" fill="#fff" data-original="#FFF"/><g fill="#428dff"><path id="Shape" d="m2.324 26.01c0-.5522847-.44771525-1-1-1h-.01c-.55094937.0055098-.99364192.4556353-.98997789 1.0066001.00366403.5509647.45230402.9951627 1.00327794.9933445.55097393-.0018183.9966724-.4489677.99669995-.9999446z" data-original="#428DFF" class="active-path" style="fill:#14488D" data-old_color="#428DFF"/><path id="Shape" d="m30 0c-6.527709.01749196-12.8724627 2.15861817-18.076 6.1-2.58606715 1.95398329-4.84291349 4.3090708-6.685 6.976-1.81070772 2.6887945-3.18907973 5.644618-4.085 8.76-.15022144.5315741.15892594 1.0842785.69050001 1.2345.53157406.1502214 1.08427853-.1589259 1.23449999-.6905.83540038-2.9087635 2.12095999-5.6688364 3.81-8.18 5.2444504-7.60202055 13.8755663-12.15827578 23.111-12.2 15.463973 0 28 12.536027 28 28s-12.536027 28-28 28-28-12.536027-28-28c0-.5522847-.44771525-1-1-1s-1 .4477153-1 1c0 16.5685425 13.4314575 30 30 30s30-13.4314575 30-30-13.4314575-30-30-30z" data-original="#428DFF" class="active-path" style="fill:#14488D" data-old_color="#428DFF"/><path id="Shape" d="m29.038 6.019c.319-.012.64-.019.962-.019.5522847 0 1-.44771525 1-1s-.4477153-1-1-1c-.348 0-.693.007-1.038.021-.5522847.01021727-.9917173.46621525-.9815 1.0185s.4662153.99171727 1.0185.9815z" data-original="#428DFF" class="active-path" style="fill:#14488D" data-old_color="#428DFF"/><path id="Shape" d="m24.8 4.523c-12.0879625 2.50132392-20.76790067 13.1329962-20.8 25.477 0 .5522847.44771525 1 1 1s1-.4477153 1-1c.02882353-11.3947059 8.0414611-21.208935 19.2-23.517.5412391-.11045695.8904569-.63876095.78-1.18s-.6387609-.89045695-1.18-.78z" data-original="#428DFF" class="active-path" style="fill:#14488D" data-old_color="#428DFF"/><path id="Shape" d="m11 30c0 10.4934102 8.5065898 19 19 19s19-8.5065898 19-19-8.5065898-19-19-19c-10.4886126.0115735-18.9884265 8.5113874-19 19zm19-17c9.3888407 0 17 7.6111593 17 17s-7.6111593 17-17 17-17-7.6111593-17-17c.010471-9.3845001 7.6154999-16.989529 17-17z" data-original="#428DFF" class="active-path" style="fill:#14488D" data-old_color="#428DFF"/><path id="Shape" d="m30 38c4.418278 0 8-3.581722 8-8s-3.581722-8-8-8-8 3.581722-8 8c.0049599 4.4162219 3.5837781 7.9950401 8 8zm0-14c3.3137085 0 6 2.6862915 6 6s-2.6862915 6-6 6-6-2.6862915-6-6c.0033074-3.3123376 2.6876624-5.9966926 6-6z" data-original="#428DFF" class="active-path" style="fill:#14488D" data-old_color="#428DFF"/></g></g></g> </svg>
