<?xml version="1.0" encoding="iso-8859-1"?>
<!-- Generator: Adobe Illustrator 19.0.0, SVG Export Plug-In . SVG Version: 6.00 Build 0)  -->
<svg version="1.1" id="Capa_1" xmlns="http://www.w3.org/2000/svg" xmlns:xlink="http://www.w3.org/1999/xlink" x="0px" y="0px"
	 viewBox="0 0 511.511 511.511" style="enable-background:new 0 0 511.511 511.511;" xml:space="preserve">
<g>
	<path style="fill:#A4C2F7;" d="M361.69,255.756c0,58.504-47.427,105.931-105.931,105.931S149.828,314.26,149.828,255.756
		s47.427-105.931,105.931-105.931c28.115-0.068,55.099,11.071,74.98,30.951S361.758,227.64,361.69,255.756z"/>

		<linearGradient id="SVGID_1_" gradientUnits="userSpaceOnUse" x1="-49.103" y1="651.9317" x2="-48.3437" y2="651.2673" gradientTransform="matrix(185.3793 0 0 -211.8621 9274.5693 138304.9688)">
		<stop  offset="0" style="stop-color:#fff"/>
		<stop  offset="0.1717" style="stop-color:#fff"/>
		<stop  offset="0.2" style="stop-color:#fff"/>
		<stop  offset="0.2001" style="stop-color:#fff"/>
		<stop  offset="0.2007" style="stop-color:#EBEBF4"/>
		<stop  offset="0.2014" style="stop-color:#F6F1F4"/>
		<stop  offset="0.2023" style="stop-color:#FDF4F4"/>
		<stop  offset="0.205" style="stop-color:#fff"/>
		<stop  offset="0.2522" style="stop-color:#fff"/>
		<stop  offset="0.26" style="stop-color:#fff"/>
		<stop  offset="0.26" style="stop-color:#fff"/>
		<stop  offset="0.3974" style="stop-color:#fff"/>
		<stop  offset="0.42" style="stop-color:#fff"/>
		<stop  offset="0.4201" style="stop-color:#fff"/>
		<stop  offset="0.4207" style="stop-color:#EBEBF4"/>
		<stop  offset="0.4214" style="stop-color:#F6F1F4"/>
		<stop  offset="0.4223" style="stop-color:#FDF4F4"/>
		<stop  offset="0.425" style="stop-color:#fff"/>
		<stop  offset="0.4894" style="stop-color:#fff"/>
		<stop  offset="0.5" style="stop-color:#fff"/>
		<stop  offset="0.5" style="stop-color:#F9F2F4"/>
		<stop  offset="0.5001" style="stop-color:#E8EBF4"/>
		<stop  offset="0.5003" style="stop-color:#DDE5F4"/>
		<stop  offset="0.5005" style="stop-color:#D6E2F4"/>
		<stop  offset="0.501" style="stop-color:#fff"/>
		<stop  offset="0.7062" style="stop-color:#fff"/>
		<stop  offset="0.74" style="stop-color:#fff"/>
		<stop  offset="0.741" style="stop-color:#fff"/>
		<stop  offset="0.8346" style="stop-color:#fff"/>
		<stop  offset="0.85" style="stop-color:#fff"/>
		<stop  offset="0.851" style="stop-color:#fff"/>
	</linearGradient>
	<ellipse style="fill:url(#SVGID_1_);" cx="242.271" cy="255.756" rx="92.69" ry="105.931"/>
	<path style="fill:#FFFFFF;" d="M230.842,361.687c-34.994-22.375-55.764-61.4-54.778-102.925
		c-0.986-41.525,19.784-80.55,54.778-102.925c-47.644,11.365-81.261,53.944-81.261,102.925S183.198,350.322,230.842,361.687
		L230.842,361.687z"/>
	<g>
		<path style="fill:#14488d;" d="M255.999,370.514c-52.68-0.011-98.584-35.894-111.313-87.013
			c-12.729-51.119,10.989-104.338,57.512-129.05s103.898-14.569,139.128,24.598s39.261,97.292,9.776,140.947
			c-2.733,4.037-8.221,5.095-12.259,2.362c-4.037-2.733-5.095-8.221-2.362-12.259c27.045-40.117,20.376-94.031-15.629-126.349
			s-90.324-33.146-127.297-1.941s-45.284,84.891-19.475,125.814s77.836,56.556,121.927,36.636c4.44-2.001,9.662-0.029,11.671,4.408
			c2.009,4.436,0.047,9.662-4.386,11.679C288.437,367.081,272.31,370.549,255.999,370.514L255.999,370.514z"/>
		<path style="fill:#14488d;" d="M203.034,264.583c-4.875,0-8.828-3.952-8.828-8.828c0.038-34.112,27.682-61.755,61.793-61.793
			c4.875,0,8.828,3.952,8.828,8.828s-3.952,8.828-8.828,8.828c-24.365,0.029-44.109,19.773-44.138,44.138
			C211.861,260.631,207.909,264.583,203.034,264.583L203.034,264.583z"/>
		<path style="fill:#14488d;" d="M8.827,263.139c-3.563,0-6.777-2.143-8.148-5.433s-0.629-7.08,1.88-9.611l2.03-2.047
			c66.695-67.234,157.478-105.052,252.181-105.052s185.486,37.817,252.181,105.052c2.221,2.239,3.078,5.493,2.249,8.535
			c-0.829,3.043-3.218,5.412-6.267,6.215c-3.049,0.804-6.296-0.081-8.516-2.32c-63.381-63.891-149.651-99.828-239.647-99.828
			S80.505,194.589,17.124,258.48l-2.03,2.047C13.439,262.202,11.181,263.143,8.827,263.139z"/>
		<circle style="fill:#14488d;" cx="326.133" cy="335.204" r="8.828"/>
	</g>
</g>
<g>
</g>
<g>
</g>
<g>
</g>
<g>
</g>
<g>
</g>
<g>
</g>
<g>
</g>
<g>
</g>
<g>
</g>
<g>
</g>
<g>
</g>
<g>
</g>
<g>
</g>
<g>
</g>
<g>
</g>
</svg>
